# Blender 4.5.3 LTS
# www.blender.org
mtllib chaoLFoot.mtl
o chd_b_M.005
v -0.279300 -0.139140 -1.060720
v -0.666820 -0.519440 -1.329840
v -0.301320 -0.490760 -1.685260
v 0.109300 -0.497159 2.079640
v 0.281760 -0.256479 1.263720
v 0.618140 -0.511939 1.320760
v -0.485880 -0.863959 2.725500
v -0.491200 -1.107339 2.813020
v -0.894180 -0.899619 2.522540
v -0.863460 -1.153419 2.631000
v 0.000300 -0.887579 2.658480
v -0.077080 -1.151419 2.775340
v -0.164200 -1.674160 -1.760420
v 0.151460 -1.633220 -1.855880
v 0.957340 -1.737420 -1.113600
v -0.851860 -1.737439 -0.284180
v 0.183900 -1.535800 2.304440
v 0.659620 -1.701239 1.328980
v -1.131620 -0.978919 1.968280
v -1.268020 -1.079580 0.949420
v -1.074640 -0.539519 0.992240
v 0.375620 -0.962859 2.324780
v 0.983700 -0.468319 0.097020
v 1.073180 -0.489200 -0.933960
v 1.250720 -1.103079 0.081360
v 1.310040 -1.088120 -1.052140
v -0.995000 -0.550040 -0.275740
v -1.178640 -1.124420 -0.371680
v -0.821520 -1.100460 -1.463460
v 0.644140 -1.360800 -1.922560
v 0.644660 -0.972560 -1.941580
v 0.124480 -1.378980 -2.031880
v 0.114900 -0.975320 -2.043280
v 0.136540 -0.460580 -1.826640
v 0.542560 -0.457540 -1.743940
v -1.121800 -1.288959 2.099940
v -1.252060 -1.445479 0.970320
v 0.333180 -1.284219 2.379020
v 0.884460 -1.436959 1.374600
v 0.881980 -1.068659 1.346920
v -0.751360 -1.517980 -1.443180
v -0.393380 -1.032940 -1.889120
v -0.364700 -1.444620 -1.868480
v 1.089660 -1.034340 -1.596300
v 1.228960 -1.472000 -1.076940
v 1.052280 -1.406600 -1.603740
v -1.130320 -1.559220 -0.362580
v 1.219760 -1.509700 0.062260
v 0.271940 -0.143200 -1.451420
v 0.619800 -0.132240 -0.875260
v 0.166760 0.003080 -0.882660
v 0.884480 -0.465160 -1.484920
v 0.515280 -0.132280 0.066460
v -0.850460 -0.495679 1.896720
v -0.731760 -0.250819 1.063540
v -0.515180 -0.137440 -0.115620
v -0.459680 -1.362199 2.702380
v -0.729680 -1.423459 2.534980
v -0.917440 -1.558339 2.109400
v -1.012840 -1.707960 1.024200
v -0.515720 -1.740060 -1.352700
v 0.576460 -1.631620 -1.782120
v 0.814840 -1.653960 -1.584080
v 0.953060 -1.732280 0.005000
v -0.414300 -0.475179 2.205500
v -0.240120 -0.143279 1.166500
v 0.000000 0.000000 0.000000
v -0.147240 -1.416039 2.649660
vn 0.3839 -0.8271 -0.4104
vn 0.0244 -0.7945 -0.6068
vn 0.2239 -0.7926 -0.5671
vn -0.1723 -0.8436 -0.5085
vn -0.3065 -0.9184 -0.2501
vn 0.4050 -0.9046 -0.1331
vn -0.2966 -0.9544 -0.0331
vn 0.3585 -0.9325 0.0438
vn -0.4291 -0.9004 0.0721
vn 0.3861 -0.8924 0.2335
vn 0.3563 -0.8249 0.4389
vn -0.4537 -0.8423 0.2909
vn 0.1950 -0.7311 0.6538
vn -0.3769 -0.7386 0.5590
vn -0.1488 -0.6370 0.7564
vn 0.7285 -0.2777 0.6262
vn 0.3714 -0.0845 0.9246
vn -0.1793 -0.0171 0.9836
vn -0.6679 -0.1315 0.7325
vn -0.9124 -0.2569 0.3186
vn -0.9224 -0.3838 0.0427
vn -0.8351 -0.5277 -0.1553
vn -0.7425 -0.4623 -0.4847
vn -0.4852 -0.3633 -0.7954
vn -0.0326 -0.2980 -0.9540
vn 0.3960 -0.2689 -0.8780
vn 0.7573 -0.3418 -0.5565
vn 0.8738 -0.4546 -0.1724
vn 0.8793 -0.4610 0.1195
vn 0.8649 -0.3340 0.3747
vn 0.7660 0.2927 0.5723
vn 0.4211 0.4972 0.7586
vn -0.1369 0.5831 0.8008
vn -0.6853 0.4503 0.5723
vn -0.9357 0.2682 0.2292
vn -0.9895 0.1428 0.0218
vn -0.9753 0.1049 -0.1945
vn -0.8473 0.0806 -0.5250
vn -0.5292 0.1457 -0.8359
vn -0.0644 0.1852 -0.9806
vn 0.4128 0.1786 -0.8931
vn 0.8086 0.1450 -0.5702
vn 0.9814 0.0951 -0.1665
vn 0.9758 0.1498 0.1592
vn 0.9102 0.2192 0.3513
vn 0.7163 0.6238 0.3127
vn 0.3846 0.8040 0.4534
vn -0.0846 0.8780 0.4710
vn -0.5692 0.7697 0.2891
vn -0.8216 0.5690 0.0334
vn -0.8156 0.5600 -0.1459
vn -0.7199 0.5565 -0.4148
vn -0.4511 0.5913 -0.6684
vn -0.0753 0.5866 -0.8064
vn 0.3437 0.5871 -0.7329
vn 0.6507 0.6096 -0.4527
vn 0.8015 0.5923 -0.0830
vn 0.7740 0.6161 0.1461
vn 0.3643 0.8969 0.2507
vn -0.0406 0.9805 0.1922
vn -0.4539 0.8860 0.0948
vn -0.4532 0.8898 -0.0539
vn -0.4116 0.8774 -0.2464
vn 0.0736 0.8955 -0.4390
vn 0.4581 0.8859 -0.0730
vn 0.4150 0.9033 0.1089
vn -0.0105 0.9985 0.0543
vn 0.0214 0.9944 -0.1037
vt 0.041992 0.582764
vt 0.088623 0.590332
vt 0.059814 0.590332
vt 0.108398 0.582764
vt 0.127075 0.559570
vt 0.027527 0.559570
vt 0.137695 0.491211
vt 0.015686 0.491211
vt 0.134155 0.408203
vt 0.020645 0.408203
vt 0.039795 0.332031
vt 0.125854 0.332031
vt 0.060516 0.294922
vt 0.106140 0.294922
vt 0.083557 0.283691
vt 0.325928 0.342285
vt 0.343018 0.332031
vt 0.380371 0.408203
vt 0.295166 0.313965
vt 0.309326 0.294922
vt 0.266602 0.283691
vt 0.266602 0.311035
vt 0.224609 0.294922
vt 0.238770 0.313965
vt 0.208740 0.344727
vt 0.191162 0.332031
vt 0.154785 0.408203
vt 0.169556 0.412109
vt 0.155396 0.491211
vt 0.171875 0.487793
vt 0.171387 0.559570
vt 0.188843 0.545898
vt 0.206543 0.582764
vt 0.215210 0.564453
vt 0.246216 0.590332
vt 0.248779 0.572754
vt 0.284668 0.572266
vt 0.287842 0.590332
vt 0.317383 0.563477
vt 0.325928 0.583008
vt 0.360596 0.563965
vt 0.342285 0.546143
vt 0.377930 0.491211
vt 0.360840 0.486328
vt 0.365723 0.411621
vt 0.312012 0.354980
vt 0.291992 0.334473
vt 0.266602 0.329102
vt 0.243164 0.333496
vt 0.220947 0.359863
vt 0.190308 0.414062
vt 0.191406 0.481934
vt 0.206665 0.534180
vt 0.228516 0.550293
vt 0.253174 0.556885
vt 0.280029 0.557129
vt 0.306397 0.550293
vt 0.326904 0.534180
vt 0.342529 0.481445
vt 0.344727 0.414062
vt 0.312988 0.415039
vt 0.288574 0.372559
vt 0.266113 0.362793
vt 0.244385 0.374023
vt 0.219482 0.415527
vt 0.216064 0.470703
vt 0.226684 0.521973
vt 0.241455 0.535156
vt 0.258545 0.541016
vt 0.275147 0.541016
vt 0.291016 0.535645
vt 0.306641 0.519043
vt 0.314209 0.470215
vt 0.291260 0.414551
vt 0.265869 0.415527
vt 0.242065 0.415527
vt 0.243896 0.466309
vt 0.248413 0.508057
vt 0.266846 0.524658
vt 0.284668 0.507568
vt 0.289307 0.466797
vt 0.266602 0.465332
vt 0.266846 0.503174
s 1
usemtl nch_gummi_M_mat
f 63/1/1 14/2/2 62/3/3
f 14/2/2 63/1/1 13/4/4
f 13/4/4 63/1/1 61/5/5
f 15/6/6 61/5/5 63/1/1
f 61/5/5 15/6/6 16/7/7
f 64/8/8 16/7/7 15/6/6
f 16/7/7 64/8/8 60/9/9
f 18/10/10 60/9/9 64/8/8
f 17/11/11 60/9/9 18/10/10
f 60/9/9 17/11/11 59/12/12
f 68/13/13 59/12/12 17/11/11
f 59/12/12 68/13/13 58/14/14
f 57/15/15 58/14/14 68/13/13
f 38/16/16 17/17/11 18/18/10
f 12/19/17 17/17/11 38/16/16
f 17/17/11 12/19/17 68/20/13
f 68/20/13 12/19/17 57/21/15
f 8/22/18 57/21/15 12/19/17
f 57/21/15 8/22/18 58/23/14
f 10/24/19 58/23/14 8/22/18
f 36/25/20 58/23/14 10/24/19
f 58/23/14 36/25/20 59/26/12
f 59/26/12 36/25/20 60/27/9
f 37/28/21 60/27/9 36/25/20
f 60/27/9 37/28/21 16/29/7
f 47/30/22 16/29/7 37/28/21
f 16/29/7 47/30/22 61/31/5
f 41/32/23 61/31/5 47/30/22
f 61/31/5 41/32/23 13/33/4
f 43/34/24 13/33/4 41/32/23
f 13/33/4 43/34/24 14/35/2
f 32/36/25 14/35/2 43/34/24
f 30/37/26 14/35/2 32/36/25
f 14/35/2 30/37/26 62/38/3
f 46/39/27 62/38/3 30/37/26
f 62/38/3 46/39/27 63/40/1
f 63/40/1 46/39/27 15/41/6
f 45/42/28 15/41/6 46/39/27
f 15/41/6 45/42/28 64/43/8
f 48/44/29 64/43/8 45/42/28
f 64/43/8 48/44/29 18/18/10
f 39/45/30 18/18/10 48/44/29
f 18/18/10 39/45/30 38/16/16
f 22/46/31 38/16/16 39/45/30
f 11/47/32 38/16/16 22/46/31
f 38/16/16 11/47/32 12/19/17
f 12/19/17 11/47/32 8/22/18
f 7/48/33 8/22/18 11/47/32
f 9/49/34 8/22/18 7/48/33
f 8/22/18 9/49/34 10/24/19
f 19/50/35 10/24/19 9/49/34
f 10/24/19 19/50/35 36/25/20
f 36/25/20 19/50/35 37/28/21
f 20/51/36 37/28/21 19/50/35
f 28/52/37 37/28/21 20/51/36
f 37/28/21 28/52/37 47/30/22
f 29/53/38 47/30/22 28/52/37
f 47/30/22 29/53/38 41/32/23
f 42/54/39 41/32/23 29/53/38
f 41/32/23 42/54/39 43/34/24
f 43/34/24 42/54/39 32/36/25
f 33/55/40 32/36/25 42/54/39
f 31/56/41 32/36/25 33/55/40
f 32/36/25 31/56/41 30/37/26
f 44/57/42 30/37/26 31/56/41
f 30/37/26 44/57/42 46/39/27
f 46/39/27 44/57/42 45/42/28
f 26/58/43 45/42/28 44/57/42
f 45/42/28 26/58/43 48/44/29
f 25/59/44 48/44/29 26/58/43
f 48/44/29 25/59/44 39/45/30
f 40/60/45 39/45/30 25/59/44
f 39/45/30 40/60/45 22/46/31
f 6/61/46 22/46/31 40/60/45
f 4/62/47 22/46/31 6/61/46
f 22/46/31 4/62/47 11/47/32
f 11/47/32 4/62/47 7/48/33
f 65/63/48 7/48/33 4/62/47
f 7/48/33 65/63/48 9/49/34
f 54/64/49 9/49/34 65/63/48
f 9/49/34 54/64/49 19/50/35
f 21/65/50 19/50/35 54/64/49
f 19/50/35 21/65/50 20/51/36
f 27/66/51 20/51/36 21/65/50
f 20/51/36 27/66/51 28/52/37
f 2/67/52 28/52/37 27/66/51
f 28/52/37 2/67/52 29/53/38
f 3/68/53 29/53/38 2/67/52
f 29/53/38 3/68/53 42/54/39
f 34/69/54 42/54/39 3/68/53
f 42/54/39 34/69/54 33/55/40
f 33/55/40 34/69/54 31/56/41
f 35/70/55 31/56/41 34/69/54
f 52/71/56 31/56/41 35/70/55
f 31/56/41 52/71/56 44/57/42
f 44/57/42 52/71/56 26/58/43
f 24/72/57 26/58/43 52/71/56
f 26/58/43 24/72/57 25/59/44
f 23/73/58 25/59/44 24/72/57
f 25/59/44 23/73/58 40/60/45
f 40/60/45 23/73/58 6/61/46
f 5/74/59 6/61/46 23/73/58
f 6/61/46 5/74/59 4/62/47
f 66/75/60 4/62/47 5/74/59
f 4/62/47 66/75/60 65/63/48
f 65/63/48 66/75/60 54/64/49
f 55/76/61 54/64/49 66/75/60
f 54/64/49 55/76/61 21/65/50
f 56/77/62 21/65/50 55/76/61
f 21/65/50 56/77/62 27/66/51
f 27/66/51 56/77/62 2/67/52
f 1/78/63 2/67/52 56/77/62
f 2/67/52 1/78/63 3/68/53
f 49/79/64 3/68/53 1/78/63
f 3/68/53 49/79/64 34/69/54
f 34/69/54 49/79/64 35/70/55
f 35/70/55 49/79/64 52/71/56
f 50/80/65 52/71/56 49/79/64
f 52/71/56 50/80/65 24/72/57
f 53/81/66 24/72/57 50/80/65
f 24/72/57 53/81/66 23/73/58
f 23/73/58 53/81/66 5/74/59
f 5/74/59 53/81/66 66/75/60
f 67/82/67 66/75/60 53/81/66
f 56/77/62 66/75/60 67/82/67
f 66/75/60 56/77/62 55/76/61
f 67/82/67 1/78/63 56/77/62
f 51/83/68 1/78/63 67/82/67
f 1/78/63 51/83/68 49/79/64
f 49/79/64 51/83/68 50/80/65
f 67/82/67 50/80/65 51/83/68
f 50/80/65 67/82/67 53/81/66
