# Blender 4.5.3 LTS
# www.blender.org
mtllib chaoBody.mtl
o chd_b_M.004
v -0.609778 -1.718803 -1.201653
v -0.503498 -1.455063 -1.977693
v -1.289238 -1.458663 -1.230853
v -0.954678 -1.213863 -2.003093
v 0.000002 -0.251363 -2.973353
v -0.333058 -0.732003 -2.801933
v 0.000002 -0.747583 -2.832973
v -0.389238 -0.406863 -2.858174
v -0.437958 0.093597 -2.767253
v 0.000002 1.229797 -1.731234
v -0.560918 1.184357 -1.659673
v 0.000002 0.876357 -2.121334
v -0.568478 0.803077 -2.033293
v 0.000002 1.816378 -1.333034
v -0.511698 1.806198 -1.245454
v 0.000002 2.069377 -0.858393
v -0.703198 -1.866043 -0.361053
v -1.438638 -1.591243 -0.361773
v -0.762418 -1.858243 0.458267
v -1.461938 -1.634543 0.445587
v -0.840238 -1.400803 1.810467
v -1.468318 -1.333963 1.367627
v -0.843538 -0.838982 2.236187
v -1.556718 -0.779383 1.716187
v -1.462938 0.690117 1.745347
v -1.175458 1.527458 1.366507
v -0.789518 0.679578 2.223267
v -0.647238 1.493257 1.750486
v -0.731178 1.914498 1.009726
v -2.096178 0.876217 0.085587
v -1.776938 1.008857 -0.797153
v -1.641498 1.640898 0.158267
v -1.464738 1.746917 -0.520014
v -1.730058 -0.960203 -1.191313
v -1.245358 -0.780043 -1.992413
v -1.937038 -0.368883 -1.123593
v -1.966418 0.292557 -0.986753
v -2.291538 0.170257 -0.033193
v -2.260998 -0.518863 -0.142833
v -1.370858 -0.212443 -1.914913
v -1.561018 -0.047582 1.857947
v -0.841558 -0.108122 2.345087
v 0.000002 -1.922043 0.541747
v 0.000002 -1.924883 -0.344653
v 0.000002 -0.871383 2.454967
v 0.000002 -1.445843 2.040927
v -0.000018 1.463377 1.940847
v -0.000158 0.638538 2.431967
v -0.000198 -0.138141 2.573487
v 0.000002 0.198777 -2.827953
v 0.000002 -1.790863 -1.232193
v 0.000002 -1.516063 -1.973693
v -1.904878 0.762697 1.026327
v -1.538418 1.582738 0.782966
v -2.051958 0.042917 1.079066
v -1.980538 -1.111243 -0.286053
v -1.340778 -1.607323 0.976307
v -0.814238 -1.730163 1.193187
v 0.000002 -1.791403 1.368887
v -1.029298 1.787517 -0.992394
v -0.724478 2.048978 -0.586214
v -1.207478 1.111057 -1.372034
v -1.315238 0.457157 -1.746553
v -2.015798 -0.670583 0.943727
v 0.000002 0.584017 -2.511773
v -0.504958 0.490117 -2.468313
v -1.867838 -1.245583 0.671387
v -0.861718 -0.052903 -2.499193
v -0.861218 0.363337 -2.269073
v -0.805838 -0.560863 -2.568193
v 0.000002 -1.181703 -2.471193
v -0.392918 -1.091223 -2.479893
v -0.606858 -0.943283 -2.506793
v -0.712078 2.085617 0.163426
v 0.000002 2.140078 0.148586
v 0.000002 1.939438 1.172127
v -1.254078 1.922858 0.160166
v 0.609782 -1.718803 -1.201653
v 1.289242 -1.458663 -1.230853
v 0.503502 -1.455063 -1.977693
v 0.954682 -1.213863 -2.003093
v 0.333062 -0.732003 -2.801933
v 0.389242 -0.406863 -2.858174
v 0.437962 0.093597 -2.767253
v 0.560922 1.184357 -1.659673
v 0.568482 0.803077 -2.033293
v 0.511702 1.806198 -1.245454
v 0.703202 -1.866043 -0.361053
v 0.762422 -1.858243 0.458267
v 1.438642 -1.591243 -0.361773
v 1.461942 -1.634543 0.445587
v 0.840242 -1.400803 1.810467
v 0.843542 -0.838982 2.236187
v 1.468322 -1.333963 1.367627
v 1.556722 -0.779383 1.716187
v 1.462902 0.690117 1.745347
v 0.789462 0.679578 2.223267
v 1.175442 1.527458 1.366507
v 0.647222 1.493257 1.750486
v 0.731182 1.914498 1.009726
v 2.096182 0.876217 0.085587
v 1.641502 1.640898 0.158267
v 1.776942 1.008857 -0.797153
v 1.464742 1.746917 -0.520014
v 1.730062 -0.960203 -1.191313
v 1.937042 -0.368883 -1.123593
v 1.245362 -0.780043 -1.992413
v 1.966422 0.292557 -0.986753
v 2.291542 0.170257 -0.033193
v 2.261002 -0.518863 -0.142833
v 1.370862 -0.212443 -1.914913
v 1.561022 -0.047582 1.857947
v 0.841482 -0.108122 2.345087
v 1.904882 0.762697 1.026327
v 1.538422 1.582738 0.782966
v 2.051962 0.042917 1.079066
v 1.980542 -1.111243 -0.286053
v 1.340782 -1.607323 0.976307
v 0.814242 -1.730163 1.193187
v 0.724482 2.048978 -0.586214
v 1.029302 1.787517 -0.992394
v 1.207482 1.111057 -1.372034
v 1.315242 0.457157 -1.746553
v 2.015802 -0.670583 0.943727
v 0.504962 0.490117 -2.468313
v 1.867842 -1.245583 0.671387
v 0.861722 -0.052903 -2.499193
v 0.861222 0.363337 -2.269073
v 0.805842 -0.560863 -2.568193
v 0.392922 -1.091223 -2.479893
v 0.606862 -0.943283 -2.506793
v 0.712082 2.085617 0.163426
v 1.254082 1.922858 0.160166
vn -0.5411 -0.7691 -0.3400
vn -0.2420 -0.8459 -0.4753
vn -0.2295 -0.9364 -0.2656
vn -0.5422 -0.6255 -0.5610
vn -0.2505 -0.6933 -0.6757
vn -0.0000 -0.7424 -0.6699
vn -0.0000 -0.8939 -0.4483
vn -0.0000 -0.9654 -0.2607
vn -0.2207 -0.9707 -0.0949
vn -0.5154 -0.8464 -0.1341
vn -0.8276 -0.5461 -0.1297
vn -0.8008 -0.4242 -0.4228
vn -0.7437 -0.2863 -0.6041
vn -0.4790 -0.5329 -0.6975
vn -0.2848 -0.4216 -0.8609
vn -0.0000 -0.4662 -0.8847
vn 0.2848 -0.4216 -0.8609
vn 0.2505 -0.6933 -0.6757
vn 0.2420 -0.8459 -0.4753
vn 0.2295 -0.9364 -0.2656
vn 0.2207 -0.9707 -0.0949
vn -0.0000 -0.9974 -0.0719
vn -0.0000 -0.9964 0.0848
vn -0.2057 -0.9765 0.0645
vn -0.5068 -0.8604 0.0544
vn -0.8147 -0.5505 0.1823
vn -0.9127 -0.2463 0.3261
vn -0.9740 -0.2154 -0.0703
vn -0.8831 -0.0751 -0.4631
vn -0.7905 0.0776 -0.6075
vn -0.6436 -0.1886 -0.7418
vn -0.4045 -0.0606 -0.9125
vn -0.0000 0.0435 -0.9991
vn 0.4045 -0.0606 -0.9125
vn 0.6436 -0.1886 -0.7418
vn 0.4790 -0.5329 -0.6975
vn 0.5422 -0.6255 -0.5610
vn 0.5411 -0.7691 -0.3400
vn 0.5154 -0.8464 -0.1341
vn 0.2057 -0.9765 0.0645
vn -0.0000 -0.9444 0.3289
vn -0.2427 -0.9203 0.3068
vn -0.5020 -0.8295 0.2447
vn -0.6199 -0.6274 0.4713
vn -0.7151 -0.2983 0.6322
vn -0.7162 0.0214 0.6975
vn -0.9204 0.0456 0.3883
vn -0.9922 0.1164 -0.0451
vn -0.8641 0.2029 -0.4606
vn -0.6813 0.3800 -0.6256
vn -0.6198 0.4547 -0.6396
vn -0.6729 0.2019 -0.7116
vn -0.4139 0.3364 -0.8459
vn -0.0000 0.4765 -0.8792
vn 0.4139 0.3364 -0.8459
vn 0.6729 0.2019 -0.7116
vn 0.7905 0.0776 -0.6075
vn 0.7437 -0.2863 -0.6041
vn 0.8008 -0.4242 -0.4228
vn 0.8276 -0.5461 -0.1297
vn 0.5068 -0.8604 0.0544
vn 0.2427 -0.9203 0.3068
vn -0.0000 -0.7411 0.6714
vn -0.3443 -0.7108 0.6134
vn -0.4085 -0.3506 0.8428
vn -0.4163 0.0091 0.9092
vn -0.3815 0.3465 0.8569
vn -0.6723 0.3407 0.6573
vn -0.8597 0.3393 0.3818
vn -0.9243 0.3814 -0.0142
vn -0.8020 0.4145 -0.4301
vn -0.5561 0.4860 -0.6742
vn -0.3051 0.5979 -0.7412
vn -0.3705 0.6912 -0.6205
vn -0.3821 0.6221 -0.6834
vn -0.0000 0.7253 -0.6885
vn 0.3821 0.6221 -0.6834
vn 0.6198 0.4547 -0.6396
vn 0.6813 0.3800 -0.6256
vn 0.8831 -0.0751 -0.4631
vn 0.9740 -0.2154 -0.0703
vn 0.9127 -0.2463 0.3261
vn 0.8147 -0.5505 0.1823
vn 0.6199 -0.6274 0.4713
vn 0.5020 -0.8295 0.2447
vn 0.3443 -0.7108 0.6134
vn -0.0000 -0.3764 0.9265
vn -0.0001 0.0039 1.0000
vn -0.0000 0.3418 0.9398
vn -0.2831 0.6861 0.6702
vn -0.5261 0.6604 0.5358
vn -0.6754 0.6643 0.3201
vn -0.7600 0.6492 0.0312
vn -0.6610 0.6963 -0.2798
vn -0.4484 0.7154 -0.5358
vn -0.2344 0.7345 -0.6368
vn -0.0000 0.7328 -0.6805
vn -0.0000 0.6573 -0.7536
vn -0.0000 0.7638 -0.6455
vn 0.3705 0.6912 -0.6205
vn 0.3051 0.5979 -0.7412
vn 0.5561 0.4860 -0.6742
vn 0.8641 0.2029 -0.4606
vn 0.9922 0.1164 -0.0451
vn 0.9204 0.0456 0.3883
vn 0.7162 0.0214 0.6975
vn 0.7151 -0.2982 0.6322
vn 0.4085 -0.3506 0.8428
vn 0.4163 0.0091 0.9092
vn 0.3815 0.3465 0.8570
vn 0.2831 0.6860 0.6702
vn -0.0000 0.6808 0.7324
vn -0.2424 0.9079 0.3420
vn -0.4390 0.8953 0.0751
vn -0.2243 0.9533 -0.2021
vn -0.0000 0.9564 -0.2919
vn 0.2344 0.7345 -0.6368
vn 0.4484 0.7154 -0.5358
vn 0.8020 0.4145 -0.4301
vn 0.9243 0.3814 -0.0142
vn 0.8597 0.3393 0.3818
vn 0.6722 0.3407 0.6573
vn 0.5261 0.6603 0.5359
vn 0.2424 0.9079 0.3420
vn -0.0000 0.9225 0.3861
vn -0.1798 0.9810 0.0734
vn -0.0000 0.9979 0.0654
vn 0.2243 0.9533 -0.2021
vn 0.6610 0.6963 -0.2798
vn 0.7600 0.6492 0.0312
vn 0.6754 0.6643 0.3201
vn 0.4390 0.8953 0.0751
vn 0.1798 0.9810 0.0734
vt 0.647461 0.711182
vt 0.712891 0.679688
vt 0.649902 0.672607
vt 0.705078 0.712891
vt 0.762207 0.698731
vt 0.781738 0.673584
vt 0.721191 0.653809
vt 0.652832 0.640869
vt 0.584473 0.674316
vt 0.583496 0.712646
vt 0.586914 0.748535
vt 0.643066 0.749268
vt 0.702148 0.746582
vt 0.758789 0.718750
vt 0.795898 0.720703
vt 0.822754 0.709961
vt 0.588379 0.641846
vt 0.504883 0.654541
vt 0.522949 0.684082
vt 0.533691 0.716797
vt 0.524902 0.745361
vt 0.522461 0.780273
vt 0.583496 0.784668
vt 0.643555 0.784424
vt 0.700195 0.784058
vt 0.756836 0.750610
vt 0.797852 0.752930
vt 0.834961 0.752930
vt 0.448730 0.677734
vt 0.485107 0.709717
vt 0.506348 0.725830
vt 0.491943 0.746826
vt 0.477783 0.776856
vt 0.475830 0.815918
vt 0.520020 0.815064
vt 0.581543 0.817993
vt 0.638184 0.821899
vt 0.692871 0.827271
vt 0.745117 0.819458
vt 0.754883 0.786011
vt 0.792969 0.791504
vt 0.829590 0.795288
vt 0.410400 0.722412
vt 0.450684 0.733398
vt 0.439209 0.773804
vt 0.436035 0.816406
vt 0.440430 0.862183
vt 0.480225 0.857300
vt 0.521973 0.854370
vt 0.578125 0.857788
vt 0.633301 0.868408
vt 0.680176 0.878418
vt 0.724609 0.888367
vt 0.747559 0.855103
vt 0.772949 0.825073
vt 0.807617 0.833008
vt 0.399658 0.773315
vt 0.397217 0.815186
vt 0.399658 0.865967
vt 0.449951 0.906311
vt 0.489502 0.900757
vt 0.531738 0.901917
vt 0.573731 0.906372
vt 0.625977 0.921326
vt 0.666016 0.930847
vt 0.709473 0.938690
vt 0.748535 0.947571
vt 0.763672 0.897095
vt 0.782715 0.865234
vt 0.410156 0.922180
vt 0.489746 0.937714
vt 0.566895 0.932007
vt 0.635742 0.958710
vt 0.658691 0.984543
vt 0.458496 0.969452
vt 0.559082 0.956818
vt 0.547363 0.989647
s 1
usemtl nch_gummi_M_mat
f 3/1/1 2/2/2 1/3/3
f 4/4/4 2/2/2 3/1/1
f 72/5/5 2/2/2 4/4/4
f 71/6/6 2/2/2 72/5/5
f 52/7/7 2/2/2 71/6/6
f 2/2/2 52/7/7 1/3/3
f 51/8/8 1/3/3 52/7/7
f 17/9/9 1/3/3 51/8/8
f 18/10/10 1/3/3 17/9/9
f 1/3/3 18/10/10 3/1/1
f 56/11/11 3/1/1 18/10/10
f 34/12/12 3/1/1 56/11/11
f 3/1/1 34/12/12 4/4/4
f 35/13/13 4/4/4 34/12/12
f 73/14/14 4/4/4 35/13/13
f 4/4/4 73/14/14 72/5/5
f 6/15/15 72/5/5 73/14/14
f 72/5/5 6/15/15 71/6/6
f 7/16/16 71/6/6 6/15/15
f 82/15/17 71/6/6 7/16/16
f 130/5/18 71/6/6 82/15/17
f 80/2/19 71/6/6 130/5/18
f 71/6/6 80/2/19 52/7/7
f 78/3/20 52/7/7 80/2/19
f 52/7/7 78/3/20 51/8/8
f 88/9/21 51/8/8 78/3/20
f 44/17/22 51/8/8 88/9/21
f 51/8/8 44/17/22 17/9/9
f 43/18/23 17/9/9 44/17/22
f 19/19/24 17/9/9 43/18/23
f 17/9/9 19/19/24 18/10/10
f 20/20/25 18/10/10 19/19/24
f 18/10/10 20/20/25 56/11/11
f 67/21/26 56/11/11 20/20/25
f 64/22/27 56/11/11 67/21/26
f 39/23/28 56/11/11 64/22/27
f 56/11/11 39/23/28 34/12/12
f 36/24/29 34/12/12 39/23/28
f 34/12/12 36/24/29 35/13/13
f 40/25/30 35/13/13 36/24/29
f 70/26/31 35/13/13 40/25/30
f 35/13/13 70/26/31 73/14/14
f 73/14/14 70/26/31 6/15/15
f 8/27/32 6/15/15 70/26/31
f 5/28/33 6/15/15 8/27/32
f 6/15/15 5/28/33 7/16/16
f 7/16/16 5/28/33 82/15/17
f 83/27/34 82/15/17 5/28/33
f 129/26/35 82/15/17 83/27/34
f 131/14/36 82/15/17 129/26/35
f 82/15/17 131/14/36 130/5/18
f 81/4/37 130/5/18 131/14/36
f 130/5/18 81/4/37 80/2/19
f 79/1/38 80/2/19 81/4/37
f 80/2/19 79/1/38 78/3/20
f 90/10/39 78/3/20 79/1/38
f 78/3/20 90/10/39 88/9/21
f 89/19/40 88/9/21 90/10/39
f 43/18/23 88/9/21 89/19/40
f 88/9/21 43/18/23 44/17/22
f 59/29/41 43/18/23 89/19/40
f 43/18/23 59/29/41 19/19/24
f 58/30/42 19/19/24 59/29/41
f 19/19/24 58/30/42 20/20/25
f 57/31/43 20/20/25 58/30/42
f 22/32/44 20/20/25 57/31/43
f 20/20/25 22/32/44 67/21/26
f 67/21/26 22/32/44 64/22/27
f 24/33/45 64/22/27 22/32/44
f 41/34/46 64/22/27 24/33/45
f 55/35/47 64/22/27 41/34/46
f 64/22/27 55/35/47 39/23/28
f 38/36/48 39/23/28 55/35/47
f 37/37/49 39/23/28 38/36/48
f 39/23/28 37/37/49 36/24/29
f 63/38/50 36/24/29 37/37/49
f 36/24/29 63/38/50 40/25/30
f 69/39/51 40/25/30 63/38/50
f 68/40/52 40/25/30 69/39/51
f 40/25/30 68/40/52 70/26/31
f 70/26/31 68/40/52 8/27/32
f 9/41/53 8/27/32 68/40/52
f 8/27/32 9/41/53 5/28/33
f 50/42/54 5/28/33 9/41/53
f 84/41/55 5/28/33 50/42/54
f 5/28/33 84/41/55 83/27/34
f 127/40/56 83/27/34 84/41/55
f 83/27/34 127/40/56 129/26/35
f 111/25/57 129/26/35 127/40/56
f 107/13/58 129/26/35 111/25/57
f 129/26/35 107/13/58 131/14/36
f 131/14/36 107/13/58 81/4/37
f 105/12/59 81/4/37 107/13/58
f 81/4/37 105/12/59 79/1/38
f 117/11/60 79/1/38 105/12/59
f 79/1/38 117/11/60 90/10/39
f 91/20/61 90/10/39 117/11/60
f 90/10/39 91/20/61 89/19/40
f 119/30/62 89/19/40 91/20/61
f 89/19/40 119/30/62 59/29/41
f 46/43/63 59/29/41 119/30/62
f 59/29/41 46/43/63 58/30/42
f 21/44/64 58/30/42 46/43/63
f 22/32/44 58/30/42 21/44/64
f 58/30/42 22/32/44 57/31/43
f 23/45/65 22/32/44 21/44/64
f 22/32/44 23/45/65 24/33/45
f 42/46/66 24/33/45 23/45/65
f 24/33/45 42/46/66 41/34/46
f 27/47/67 41/34/46 42/46/66
f 25/48/68 41/34/46 27/47/67
f 41/34/46 25/48/68 55/35/47
f 53/49/69 55/35/47 25/48/68
f 55/35/47 53/49/69 38/36/48
f 30/50/70 38/36/48 53/49/69
f 31/51/71 38/36/48 30/50/70
f 38/36/48 31/51/71 37/37/49
f 62/52/72 37/37/49 31/51/71
f 37/37/49 62/52/72 63/38/50
f 11/53/73 63/38/50 62/52/72
f 13/54/74 63/38/50 11/53/73
f 66/55/75 63/38/50 13/54/74
f 63/38/50 66/55/75 69/39/51
f 69/39/51 66/55/75 68/40/52
f 68/40/52 66/55/75 9/41/53
f 9/41/53 66/55/75 50/42/54
f 65/56/76 50/42/54 66/55/75
f 125/55/77 50/42/54 65/56/76
f 50/42/54 125/55/77 84/41/55
f 84/41/55 125/55/77 127/40/56
f 128/39/78 127/40/56 125/55/77
f 127/40/56 128/39/78 111/25/57
f 123/38/79 111/25/57 128/39/78
f 106/24/80 111/25/57 123/38/79
f 111/25/57 106/24/80 107/13/58
f 107/13/58 106/24/80 105/12/59
f 110/23/81 105/12/59 106/24/80
f 105/12/59 110/23/81 117/11/60
f 124/22/82 117/11/60 110/23/81
f 126/21/83 117/11/60 124/22/82
f 117/11/60 126/21/83 91/20/61
f 94/32/84 91/20/61 126/21/83
f 118/31/85 91/20/61 94/32/84
f 91/20/61 118/31/85 119/30/62
f 94/32/84 119/30/62 118/31/85
f 92/44/86 119/30/62 94/32/84
f 119/30/62 92/44/86 46/43/63
f 45/57/87 46/43/63 92/44/86
f 46/43/63 45/57/87 21/44/64
f 21/44/64 45/57/87 23/45/65
f 23/45/65 45/57/87 42/46/66
f 49/58/88 42/46/66 45/57/87
f 42/46/66 49/58/88 27/47/67
f 48/59/89 27/47/67 49/58/88
f 28/60/90 27/47/67 48/59/89
f 26/61/91 27/47/67 28/60/90
f 27/47/67 26/61/91 25/48/68
f 54/62/92 25/48/68 26/61/91
f 25/48/68 54/62/92 53/49/69
f 53/49/69 54/62/92 30/50/70
f 32/63/93 30/50/70 54/62/92
f 30/50/70 32/63/93 31/51/71
f 33/64/94 31/51/71 32/63/93
f 60/65/95 31/51/71 33/64/94
f 31/51/71 60/65/95 62/52/72
f 15/66/96 62/52/72 60/65/95
f 62/52/72 15/66/96 11/53/73
f 14/67/97 11/53/73 15/66/96
f 10/68/98 11/53/73 14/67/97
f 12/69/99 11/53/73 10/68/98
f 11/53/73 12/69/99 13/54/74
f 65/56/76 13/54/74 12/69/99
f 13/54/74 65/56/76 66/55/75
f 86/54/100 65/56/76 12/69/99
f 65/56/76 86/54/100 125/55/77
f 123/38/79 125/55/77 86/54/100
f 125/55/77 123/38/79 128/39/78
f 85/53/101 123/38/79 86/54/100
f 122/52/102 123/38/79 85/53/101
f 108/37/103 123/38/79 122/52/102
f 123/38/79 108/37/103 106/24/80
f 106/24/80 108/37/103 110/23/81
f 109/36/104 110/23/81 108/37/103
f 116/35/105 110/23/81 109/36/104
f 110/23/81 116/35/105 124/22/82
f 112/34/106 124/22/82 116/35/105
f 95/33/107 124/22/82 112/34/106
f 94/32/84 124/22/82 95/33/107
f 124/22/82 94/32/84 126/21/83
f 93/45/108 94/32/84 95/33/107
f 94/32/84 93/45/108 92/44/86
f 92/44/86 93/45/108 45/57/87
f 113/46/109 45/57/87 93/45/108
f 45/57/87 113/46/109 49/58/88
f 97/47/110 49/58/88 113/46/109
f 49/58/88 97/47/110 48/59/89
f 99/60/111 48/59/89 97/47/110
f 47/70/112 48/59/89 99/60/111
f 48/59/89 47/70/112 28/60/90
f 29/71/113 28/60/90 47/70/112
f 28/60/90 29/71/113 26/61/91
f 26/61/91 29/71/113 54/62/92
f 77/72/114 54/62/92 29/71/113
f 54/62/92 77/72/114 32/63/93
f 32/63/93 77/72/114 33/64/94
f 61/73/115 33/64/94 77/72/114
f 33/64/94 61/73/115 60/65/95
f 60/65/95 61/73/115 15/66/96
f 16/74/116 15/66/96 61/73/115
f 15/66/96 16/74/116 14/67/97
f 87/66/117 14/67/97 16/74/116
f 85/53/101 14/67/97 87/66/117
f 14/67/97 85/53/101 10/68/98
f 10/68/98 85/53/101 12/69/99
f 86/54/100 12/69/99 85/53/101
f 87/66/117 122/52/102 85/53/101
f 121/65/118 122/52/102 87/66/117
f 103/51/119 122/52/102 121/65/118
f 122/52/102 103/51/119 108/37/103
f 108/37/103 103/51/119 109/36/104
f 101/50/120 109/36/104 103/51/119
f 114/49/121 109/36/104 101/50/120
f 109/36/104 114/49/121 116/35/105
f 96/48/122 116/35/105 114/49/121
f 116/35/105 96/48/122 112/34/106
f 97/47/110 112/34/106 96/48/122
f 113/46/109 112/34/106 97/47/110
f 112/34/106 113/46/109 95/33/107
f 93/45/108 95/33/107 113/46/109
f 98/61/123 97/47/110 96/48/122
f 97/47/110 98/61/123 99/60/111
f 100/71/124 99/60/111 98/61/123
f 99/60/111 100/71/124 47/70/112
f 76/75/125 47/70/112 100/71/124
f 47/70/112 76/75/125 29/71/113
f 74/76/126 29/71/113 76/75/125
f 29/71/113 74/76/126 77/72/114
f 77/72/114 74/76/126 61/73/115
f 75/77/127 61/73/115 74/76/126
f 61/73/115 75/77/127 16/74/116
f 120/73/128 16/74/116 75/77/127
f 16/74/116 120/73/128 87/66/117
f 87/66/117 120/73/128 121/65/118
f 104/64/129 121/65/118 120/73/128
f 121/65/118 104/64/129 103/51/119
f 102/63/130 103/51/119 104/64/129
f 103/51/119 102/63/130 101/50/120
f 115/62/131 101/50/120 102/63/130
f 101/50/120 115/62/131 114/49/121
f 114/49/121 115/62/131 96/48/122
f 96/48/122 115/62/131 98/61/123
f 98/61/123 115/62/131 100/71/124
f 133/72/132 100/71/124 115/62/131
f 132/76/133 100/71/124 133/72/132
f 100/71/124 132/76/133 76/75/125
f 75/77/127 76/75/125 132/76/133
f 76/75/125 75/77/127 74/76/126
f 132/76/133 120/73/128 75/77/127
f 133/72/132 120/73/128 132/76/133
f 120/73/128 133/72/132 104/64/129
f 104/64/129 133/72/132 102/63/130
f 115/62/131 102/63/130 133/72/132
